<svg xmlns="http://www.w3.org/2000/svg">
 <symbol  viewBox="0 0 24 24" id="community">
<path d="M10.0001 5C10.0001 3.34314 8.65691 2 7.00006 2C5.3432 2 4.00006 3.34314 4.00006 5C4.00006 6.65686 5.3432 8 7.00006 8C8.65691 8 10.0001 6.65686 10.0001 5ZM12.0001 5C12.0001 7.76142 9.76148 10 7.00006 10C4.23863 10 2.00006 7.76142 2.00006 5C2.00006 2.23858 4.23863 0 7.00006 0C9.76148 0 12.0001 2.23858 12.0001 5ZM19.0001 5.5C19.0001 7.4398 17.4501 9 15.5001 9C13.55 9 12.0001 7.4398 12.0001 5.5C12.0001 3.5602 13.55 2 15.5001 2C17.4501 2 19.0001 3.5602 19.0001 5.5ZM17.0001 5.5C17.0001 4.66183 16.3426 4 15.5001 4C14.6575 4 14.0001 4.66183 14.0001 5.5C14.0001 6.33817 14.6575 7 15.5001 7C16.3426 7 17.0001 6.33817 17.0001 5.5ZM13.9064 16.9283C14.0284 18.6085 12.6454 20 10.9572 20H2.95681C1.26854 20 -0.114524 18.6085 0.00750182 16.9283C0.286783 13.0828 2.26692 11 7.00006 11C11.7239 11 13.6247 13.0499 13.9064 16.9283ZM11.9117 17.0732C11.7017 14.1819 10.6057 13 7.00006 13C3.37266 13 2.20919 14.2238 2.00225 17.0732C1.96665 17.5633 2.40071 18 2.95681 18H10.9572C11.5132 18 11.9473 17.5633 11.9117 17.0732ZM15.5001 17C14.9478 17 14.5001 16.5523 14.5001 16C14.5001 15.4477 14.9478 15 15.5001 15H17.9835C17.9378 14.0137 17.8024 13.3246 17.6056 12.9472C17.1621 12.0602 16.4152 11.5 15.5001 11.5C14.5432 11.5 14.2941 11.6178 13.7901 12.1239C13.7499 12.1643 13.7499 12.1643 13.7072 12.2071C13.3166 12.5976 12.6835 12.5976 12.2929 12.2071C11.9024 11.8166 11.9024 11.1834 12.2929 10.7929C12.3318 10.7539 12.3318 10.7539 12.3729 10.7126C13.2311 9.85085 13.9733 9.5 15.5001 9.5C17.2516 9.5 18.638 10.5398 19.3866 12.0374C19.7373 12.7096 19.9234 13.6563 19.9814 14.9075C19.9832 14.9537 19.9832 14.9537 19.9835 15C19.9835 16.1046 19.0881 17 17.9835 17L15.5001 17Z" fill="white"/>
 </symbol>


<symbol viewBox="0 0 24 24" id="house">
<path d="M4.99808 7.0625H6.00192C6.03418 7.58567 6.46871 8 7 8C7.53129 8 7.96582 7.58567 7.99808 7.0625H9.00192C9.03418 7.58567 9.46871 8 10 8C10.5313 8 10.9658 7.58567 10.9981 7.0625H12.0019C12.0342 7.58567 12.4687 8 13 8C13.5313 8 13.9658 7.58567 13.9981 7.0625H15.0019C15.0342 7.58567 15.4687 8 16 8C16.5523 8 17 7.55228 17 7C17 6.93189 16.9932 6.86538 16.9802 6.8011C17.3095 6.50085 17.4075 6.00535 17.189 5.59361L15.5632 2.53111C15.3897 2.2043 15.0499 2 14.6799 2H5.32006C4.95006 2 4.61029 2.2043 4.4368 2.53111L2.81103 5.59361C2.73437 5.73801 2.69429 5.89901 2.69429 6.0625C2.69429 6.35489 2.81978 6.61797 3.01984 6.80083C3.00683 6.86519 3 6.9318 3 7C3 7.55228 3.44772 8 4 8C4.53129 8 4.96582 7.58567 4.99808 7.0625ZM2.73611 1.13262C3.06936 0.440237 3.76983 0 4.53823 0H15.4618C16.2302 0 16.9306 0.440237 17.2639 1.13262L19.9375 6.6875L20 6.84375V7C20 7.87891 19.6094 8.66797 19 9.21875V17C19 18.6569 17.6569 20 16 20H4C2.34315 20 1 18.6569 1 17V9.21875C0.390625 8.66797 0 7.87891 0 7V6.84375L0.0625 6.6875L2.73611 1.13262ZM11 10V18H16C16.5523 18 17 17.5523 17 17V10H11ZM3 10V17C3 17.5523 3.44772 18 4 18H9V10H3ZM8 13C7.44922 13 7 13.4492 7 14C7 14.5508 7.44922 15 8 15V13ZM12 13V15C12.5508 15 13 14.5508 13 14C13 13.4492 12.5508 13 12 13Z" fill="white"/>
</symbol>

<symbol viewBox="0 0 24 24" id="applications">
<path d="M8.92893 12L10.9289 10H5C4.44772 10 4 9.55228 4 9C4 8.44772 4.44772 8 5 8H11C11.5292 8 11.9624 8.41104 11.9977 8.93126L13.0208 7.90812C13.4113 7.51759 14.0445 7.51759 14.435 7.90812L19.0919 12.565C19.4824 12.9555 19.4824 13.5887 19.0919 13.9792L13.364 19.7071C13.1764 19.8946 12.9221 20 12.6569 20H7V14.3431C7 14.225 7.02092 14.1089 7.06072 14H5C4.44772 14 4 13.5523 4 13C4 12.4477 4.44772 12 5 12H8.92893ZM13.7279 10.0294L9 14.7574V18H12.2426L16.9706 13.2721L13.7279 10.0294ZM3 0H13C14.5 0 16 1.5 16 3V5C16 5.55228 15.5523 6 15 6C14.4477 6 14 5.55228 14 5V3C14 2.44772 13.5523 2 13 2H3C2.44772 2 2 2.44772 2 3V16C2 16.5523 2.44772 17 3 17H4C4.55228 17 5 17.4477 5 18C5 18.5523 4.55228 19 4 19H3C1.5 19 0 17.5 0 16V3C0 1.5 1.5 0 3 0ZM4 5C4 4.44772 4.44772 4 5 4H11C11.5523 4 12 4.44772 12 5C12 5.55228 11.5523 6 11 6H5C4.44772 6 4 5.55228 4 5Z" fill="white"/>
</symbol>

<symbol viewBox="0 0 24 24" id="lampa">
<path d="M11 0C15.4062 0 19 3.59375 19 8C19 10.3555 17.8086 12.0039 16.7812 13.25C15.7539 14.4961 15 15.3398 15 16.3125V18C15 19.1055 14.1055 20 13 20H12.7188C12.3711 20.5977 11.7383 21 11 21C10.2617 21 9.62891 20.5977 9.28125 20H9C7.89453 20 7 19.1055 7 18V16.3125C7 15.3203 6.24219 14.457 5.21875 13.2188C4.19531 11.9805 3 10.3633 3 8C3 3.59375 6.59375 0 11 0ZM11 2C7.67578 2 5 4.67578 5 8C5 9.70703 5.80469 10.793 6.78125 11.9688C7.69531 13.0703 8.85547 14.2852 9 16H13C13.1445 14.2969 14.3047 13.0742 15.2188 11.9688C16.1914 10.7852 17 9.69922 17 8C17 4.67578 14.3242 2 11 2ZM1.75 2.15625C1.87891 2.15625 2.02734 2.16406 2.15625 2.21875C2.66797 2.42969 2.89844 3.01953 2.6875 3.53125C2.47656 4.04297 1.88672 4.30469 1.375 4.09375C0.863281 3.88281 0.632813 3.29297 0.84375 2.78125C1.00391 2.39844 1.35938 2.16016 1.75 2.15625ZM20.3125 2.15625C20.7031 2.16016 21.0898 2.39844 21.25 2.78125C21.4609 3.29297 21.1992 3.88281 20.6875 4.09375C20.1758 4.30469 19.5859 4.04297 19.375 3.53125C19.1641 3.01953 19.4258 2.42969 19.9375 2.21875C20.0664 2.16406 20.1836 2.15625 20.3125 2.15625ZM1 7C1.55469 7 2 7.44531 2 8C2 8.55469 1.55469 9 1 9C0.445313 9 0 8.55469 0 8C0 7.44531 0.445313 7 1 7ZM21 7C21.5508 7 22 7.44922 22 8C22 8.55078 21.5508 9 21 9C20.4492 9 20 8.55078 20 8C20 7.44922 20.4492 7 21 7ZM20.2188 11.8125C20.3477 11.8125 20.4961 11.8516 20.625 11.9062C21.1367 12.1172 21.3672 12.707 21.1562 13.2188C20.9453 13.7305 20.3555 13.9609 19.8438 13.75C19.332 13.5391 19.1016 12.9492 19.3125 12.4375C19.4727 12.0547 19.8281 11.8164 20.2188 11.8125ZM1.78125 11.8438C2.17188 11.8477 2.52734 12.0859 2.6875 12.4688C2.89844 12.9805 2.66797 13.5703 2.15625 13.7812C1.64453 13.9922 1.05469 13.7305 0.84375 13.2188C0.632813 12.707 0.863281 12.1172 1.375 11.9062C1.50391 11.8516 1.65234 11.8438 1.78125 11.8438ZM13 16H12.0132L12 14C12 12.4971 12.5863 10.243 13.4599 9.02004L14.0934 8.13314C14.3071 7.83397 14.2732 7.42417 14.0132 7.16421C13.7942 6.94526 13.4392 6.94526 13.2203 7.16421L12.7203 7.66421C11.8347 8.54983 10.3988 8.54983 9.51319 7.66421L9.01319 7.16421C8.79424 6.94526 8.43925 6.94526 8.2203 7.16421C7.96034 7.42417 7.92642 7.83397 8.14011 8.13314L8.77361 9.02004C9.64715 10.243 10.0132 12.4971 10.0132 14V16H9.01319V14C9.01319 12.7055 8.71228 10.6546 7.95988 9.60128L7.32638 8.71437C6.82856 8.01743 6.90757 7.06273 7.51319 6.45711C8.12267 5.84763 9.11082 5.84763 9.7203 6.45711L10.2203 6.95711C10.7154 7.4522 11.5181 7.4522 12.0132 6.95711L12.5132 6.45711C13.1227 5.84763 14.1108 5.84763 14.7203 6.45711C15.3259 7.06273 15.4049 8.01743 14.9071 8.71437L14.2736 9.60128C13.5212 10.6546 13 12.7055 13 14V16Z" fill="white"/>
</symbol>

<symbol viewBox="0 0 24 24" id="franchise">
<path d="M8 0C7.47656 0 6.94141 0.183594 6.5625 0.5625C6.18359 0.941406 6 1.47656 6 2V3H3C1.34315 3 0 4.34315 0 6V15C0 16.6569 1.34315 18 3 18H17C18.6569 18 20 16.6569 20 15V6C20 4.34315 18.6569 3 17 3H14V2C14 1.47656 13.8164 0.941406 13.4375 0.5625C13.0586 0.183594 12.5234 0 12 0H8ZM8 2H12V3H8V2ZM2 11H18V15C18 15.5523 17.5523 16 17 16H3C2.44772 16 2 15.5523 2 15V11ZM3 5H17C17.5523 5 18 5.44772 18 6V9H2V6C2 5.44772 2.44772 5 3 5ZM10 6C9.44922 6 9 6.44922 9 7C9 7.55078 9.44922 8 10 8C10.5508 8 11 7.55078 11 7C11 6.44922 10.5508 6 10 6Z" fill="white"/>
</symbol>

<symbol viewBox="0 0 24 24" id="invest">
<path d="M10.0006 15.9649C8.76116 15.8685 7.9468 15.5681 7 15L6.55279 14.8944C6.05881 14.6474 5.85858 14.0468 6.10557 13.5528C6.35256 13.0588 6.95324 12.8586 7 13L7.44721 13.1056C8.82046 13.7922 9.51314 14 11 14C12.9 14 14 13.5417 14 13C14 12.4583 12.9 12 11.019 11.9998C8.17244 12.0538 6 11.1349 6 9C6 7.12792 7.62986 6.226 10.0007 6.03782C10.0002 6.02527 10 6.01266 10 6V5.5C10 4.94772 10.4477 4.5 11 4.5C11.5523 4.5 12 4.94772 12 5.5V6C12 6.01192 11.9998 6.02379 11.9994 6.03561C13.2546 6.13502 14.1402 6.45209 15.4472 7.10557C15.9412 7.35256 16.1414 7.95323 15.8944 8.44721C15.6474 8.94119 15.0468 9.14142 14.5528 8.89443C13.1795 8.2078 12.4869 8 11 8C9.1 8 8 8.45833 8 9C8 9.55706 9.13058 10.0353 11 10C13.9 10 16 10.875 16 13C16 14.8721 14.3701 15.774 11.9993 15.9622C11.9998 15.9747 12 15.9873 12 16V16.5C12 17.0523 11.5523 17.5 11 17.5C10.4477 17.5 10 17.0523 10 16.5V16C10 15.9883 10.0002 15.9766 10.0006 15.9649ZM11 22C4.92487 22 0 17.0751 0 11C0 4.92487 4.92487 0 11 0C17.0751 0 22 4.92487 22 11C22 17.0751 17.0751 22 11 22ZM11 20C15.9706 20 20 15.9706 20 11C20 6.02944 15.9706 2 11 2C6.02944 2 2 6.02944 2 11C2 15.9706 6.02944 20 11 20Z" fill="white"/>
</symbol>

<symbol viewBox="0 0 24 24" id="business">
<path d="M3.15268 6.23294C3.04723 5.71222 2.99986 5.16713 2.99986 4.5C2.99986 2.29286 5.08427 0 7.49986 0H12.4999C14.9154 0 16.9999 2.29286 16.9999 4.5C16.9999 5.14235 16.9476 5.69628 16.8372 6.23422C17.2632 6.24062 17.6965 6.33825 18.1102 6.53132C19.7019 7.27408 20.3243 9.08721 19.3943 10.9472C19.4123 10.9111 18.753 12.4734 18.4242 13.0891C17.4576 14.8992 16.2283 16 14.4999 16H10.9999V18H13.9999C14.9999 18 15.9999 19 15.9999 20H3.99986C3.99986 19 4.99986 18 5.99986 18H8.99986V16H5.49986C3.77144 16 2.54214 14.8992 1.57551 13.0891C1.24668 12.4734 0.587361 10.9111 0.605428 10.9472C-0.324575 9.08721 0.297843 7.27408 1.88947 6.53132C2.30022 6.33963 2.73036 6.24202 3.15268 6.23294ZM5.91272 8.08982C6.02308 8.31252 6.11487 8.51636 6.30694 8.95503C6.56697 9.54894 6.68216 9.79558 6.80899 10.0128C6.81545 10.0239 6.82175 10.0345 6.82787 10.0447H13.1719C13.2426 9.92743 13.3274 9.76321 13.427 9.54979C13.499 9.39547 13.5582 9.26233 13.6928 8.95503C13.8954 8.49218 13.9864 8.29076 14.0714 8.12861L14.072 8.12706C14.111 8.02969 14.3673 7.39605 14.4334 7.22838C14.5511 6.92998 14.6356 6.69941 14.7055 6.48207C14.9095 5.84803 14.9999 5.27704 14.9999 4.5C14.9999 3.35714 13.7661 2 12.4999 2H7.49986C6.23362 2 4.99986 3.35714 4.99986 4.5C4.99986 5.23199 5.06442 5.72992 5.21431 6.24655C5.28139 6.47777 5.36815 6.72427 5.49664 7.05354C5.56688 7.23357 5.84136 7.91283 5.91272 8.08982ZM16.66 12.147C16.9351 11.6318 17.5803 10.103 17.6054 10.0528C18.0338 9.19598 17.8322 8.60863 17.2645 8.34368C16.7218 8.09045 16.1667 8.27549 15.8943 8.94721C15.796 9.14372 15.7133 9.3269 15.5249 9.75717C15.3838 10.0794 15.3205 10.2217 15.2394 10.3956C14.6967 11.5585 14.3479 12.0447 13.4999 12.0447H6.49986C5.83747 12.0447 5.45778 11.6653 5.08176 11.0211C4.90054 10.7107 4.76929 10.4297 4.47484 9.75717C4.28646 9.3269 4.20368 9.14372 4.07138 8.87139C3.83302 8.27549 3.27788 8.09045 2.73524 8.34368C2.16751 8.60863 1.96588 9.19598 2.39428 10.0528C2.4194 10.103 3.06458 11.6318 3.33971 12.147C3.99523 13.3745 4.69374 14 5.49986 14H14.4999C15.306 14 16.0045 13.3745 16.66 12.147Z" fill="white"/>
</symbol>

<symbol viewBox="0 0 24 24" id="plan">
<path d="M9 0C10.3008 0 11.4141 0.800781 11.8125 2H15C16.6569 2 18 3.34315 18 5V19C18 20.6569 16.6569 22 15 22H3C1.34315 22 0 20.6569 0 19V5C0 3.34315 1.34315 2 3 2H6.1875C6.58594 0.800781 7.69922 0 9 0ZM9 2C8.39844 2 8 2.39844 8 3C8 3.60156 8.39844 4 9 4C9.60156 4 10 3.60156 10 3C10 2.39844 9.60156 2 9 2ZM3 4C2.44772 4 2 4.44772 2 5V19C2 19.5523 2.44772 20 3 20H15C15.5523 20 16 19.5523 16 19V5C16 4.44772 15.5523 4 15 4H14V5C14 5.55228 13.5523 6 13 6H5C4.44772 6 4 5.55228 4 5V4H3ZM12.9453 9.24224C12.9478 9.23967 12.9504 9.23712 12.953 9.23459C13.2593 8.93679 13.7491 8.94368 14.0469 9.25C14.3501 9.56193 14.3466 10.0596 14.039 10.3672L8.70711 15.6991C8.31658 16.0897 7.68342 16.0897 7.29289 15.6991L4.96099 13.3672C4.65336 13.0596 4.64986 12.5619 4.95312 12.25C4.95566 12.2474 4.95821 12.2448 4.96077 12.2422C5.26287 11.9402 5.75265 11.9402 6.05474 12.2422L8 14.1875L12.9453 9.24224Z" fill="white"/>
</symbol>

<symbol viewBox="0 0 24 24" id="tovar">
<path d="M2.90285 0.853075C3.2771 0.318422 3.88868 0 4.54131 0H15.4587C16.1113 0 16.7229 0.318422 17.0972 0.853075L19.6385 4.48352C19.8738 4.81969 20 5.2201 20 5.63044L20 17C20 18.6569 18.6569 20 17 20L3 20C1.34315 20 0 18.6569 0 17V5.63044C0 5.2201 0.126219 4.81969 0.361536 4.48352L2.90285 0.853075ZM5 2C4.68524 2 4.38885 2.14819 4.2 2.4L3 4H9V2H5ZM11 2V4H17L15.8 2.4C15.6111 2.14819 15.3148 2 15 2H11ZM3 6C2.44772 6 2 6.44772 2 7V17C2 17.5523 2.44772 18 3 18H17C17.5523 18 18 17.5523 18 17V7C18 6.44772 17.5523 6 17 6H3ZM7 9C7 8.44772 7.44772 8 8 8H12C12.5523 8 13 8.44772 13 9C13 9.55228 12.5523 10 12 10H8C7.44772 10 7 9.55228 7 9Z" fill="white"/>
</symbol>

<symbol viewBox="0 0 24 24" id="flash">
<path d="M6.74606 14H2.97499C2.54916 14 2.13445 13.8641 1.79122 13.6121C0.90091 12.9583 0.709164 11.7066 1.36294 10.8162L8.63317 0.91572C9.08629 0.298666 9.8519 -0.00559235 10.605 0.13211C11.6915 0.330793 12.4113 1.37268 12.2126 2.45924L11.1994 8.00002H14.9812C15.419 8.00002 15.8448 8.14371 16.1931 8.40903C17.0718 9.07836 17.2415 10.3333 16.5721 11.2119L9.04669 21.0911C8.57142 21.715 7.77534 22.0036 7.01069 21.8291C5.93381 21.5833 5.26007 20.5111 5.50584 19.4342L6.74606 14ZM2.97499 12H9.25394L7.4557 19.8792L14.9812 10H8.80056L10.2452 2.09949L2.97499 12Z" fill="white"/>
</symbol>

<symbol viewBox="-5 0 24 24" id="fb">
<path fill-rule="evenodd" clip-rule="evenodd" d="M9 3.5H7.5C6.5 3.5 6 4 6 5V6.57366H8.5V10H6V20H2V10H0V6.57366H2V4.5C2 2 3 0 6 0H9V3.5Z" fill="white"/>
</symbol>

<symbol viewBox="0 0 24 24" id="vk">
<path fill-rule="evenodd" clip-rule="evenodd" d="M19.0846 11.9542L16.417 11.9894C16.417 11.9894 15.8421 12.1066 15.0887 11.5617C14.0898 10.8411 13.1466 8.96634 12.4099 9.2124C11.6677 9.46432 11.69 11.1458 11.69 11.1458C11.69 11.1458 11.6956 11.4445 11.5281 11.6379C11.344 11.8488 10.9812 11.8254 10.9812 11.8254H9.78691C9.78691 11.8254 7.14716 12.0538 4.82552 9.51119C2.29181 6.74006 0.0538805 1.26222 0.0538805 1.26222C0.0538805 1.26222 -0.0744797 0.916559 0.0650415 0.740801C0.221306 0.547464 0.651032 0.541606 0.651032 0.541606L3.50843 0.52989C3.50843 0.52989 3.77632 0.576759 3.97165 0.723225C4.12791 0.846256 4.2172 1.0806 4.2172 1.0806C4.2172 1.0806 4.68042 2.30506 5.29431 3.4182C6.48862 5.59176 7.0467 6.06631 7.44852 5.83196C8.0401 5.49216 7.86151 2.76789 7.86151 2.76789C7.86151 2.76789 7.87267 1.77778 7.56572 1.33838C7.32574 0.992721 6.8737 0.893125 6.67836 0.863832C6.51652 0.840397 6.77882 0.447868 7.11925 0.272109C7.63269 0.00846884 8.54237 -0.00910586 9.6139 0.00261068C10.451 0.0143287 10.691 0.0670562 11.0203 0.149076C12.0025 0.400999 11.6732 1.36768 11.6732 3.68184C11.6732 4.42589 11.5449 5.46873 12.0527 5.81439C12.2704 5.96671 12.8062 5.83782 14.1456 3.44749C14.7818 2.31092 15.2562 0.981005 15.2562 0.981005C15.2562 0.981005 15.3622 0.746659 15.524 0.641202C15.6859 0.535748 15.9091 0.570899 15.9091 0.570899L18.9172 0.553324C18.9172 0.553324 19.8213 0.436151 19.9664 0.86969C20.1227 1.32081 19.6315 2.3695 18.4038 4.09195C16.3835 6.91581 16.1603 6.65217 17.8345 8.28674C19.4362 9.851 19.7711 10.6126 19.8213 10.7064C20.4854 11.8605 19.0846 11.9542 19.0846 11.9542Z" fill="white"/>
</symbol>

<symbol viewBox="0 0 24 24" id="tg">
<path d="M8 11.5L16.3635 3.41939C16.7378 3.08274 16.2818 2.91858 15.7849 3.22393L5.2597 9.95328L0.713393 8.51526C-0.268408 8.21061 -0.275459 7.5269 0.93382 7.03535L18.6497 0.112461C19.4589 -0.259817 20.2398 0.30941 19.931 1.56445L16.9139 15.9726C16.7032 16.9965 16.0928 17.2414 15.247 16.7684L11.1 13.7536L9.09091 15.5097C8.78645 15.7758 8.54545 16 8 16V11.5Z" fill="white"/>
</symbol>

<symbol viewBox="0 0 24 24" id="in">
<path d="M5 0C2.23828 0 0 2.23828 0 5V13C0 15.7617 2.23828 18 5 18H13C15.7617 18 18 15.7617 18 13V5C18 2.23828 15.7617 0 13 0H5ZM15 2C15.5508 2 16 2.44922 16 3C16 3.55078 15.5508 4 15 4C14.4492 4 14 3.55078 14 3C14 2.44922 14.4492 2 15 2ZM9 4C11.7617 4 14 6.23828 14 9C14 11.7617 11.7617 14 9 14C6.23828 14 4 11.7617 4 9C4 6.23828 6.23828 4 9 4ZM9 6C7.34375 6 6 7.34375 6 9C6 10.6562 7.34375 12 9 12C10.6562 12 12 10.6562 12 9C12 7.34375 10.6562 6 9 6Z" fill="white"/>
</symbol>

<symbol viewBox="0 0 24 24" id="yt">
<path d="M10.0446 0.5C6.81021 0.5 2.61225 0.762716 2.61225 0.762716C1.12859 0.995813 0 2.18717 0 3.63604V7.99929V12.3625C0.00296952 13.7934 1.109 15.009 2.60923 15.2316C2.61225 15.2359 6.81021 15.5 10.0446 15.5C13.2789 15.5 17.4769 15.2359 17.4769 15.2359C18.9803 15.0123 19.9984 13.7942 20 12.3632V8V3.63533C19.9978 2.20536 18.9807 0.98971 17.4799 0.766977C17.4769 0.762716 13.2789 0.5 10.0446 0.5ZM8 4.5L14 8L8 11.5V4.5Z" fill="white"/>
</symbol>

<symbol viewBox="-5 0 24 24" id="od">
<path d="M6 3C7.10291 3 8 3.89796 8 5.00194C8 6.10204 7.10291 7 6 7C4.89709 7 4 6.10204 4 5.00194C4 3.89796 4.89709 3 6 3ZM6.00195 10C8.76085 10 11 7.76084 11 5.00195C11 2.24306 8.76085 0 6.00195 0C3.24306 0 1 2.24306 1 5.00195C1 7.75694 3.24306 10 6.00195 10ZM8.16481 14.2431C9.25264 13.9941 10.3018 13.5573 11.2692 12.937C12.0002 12.4697 12.2194 11.4869 11.7594 10.7443C11.2993 10.0018 10.3319 9.77465 9.60091 10.2464C7.40806 11.6441 4.59175 11.6441 2.4032 10.2464C1.66794 9.77465 0.700509 10.0018 0.24044 10.7443C-0.21963 11.4869 -0.000343919 12.4697 0.734907 12.937C1.69804 13.5573 2.75147 13.9941 3.8393 14.2431L0.846699 17.2831C0.236141 17.9034 0.236141 18.9124 0.851 19.5326C1.15628 19.8428 1.55615 20 1.95603 20C2.3559 20 2.76007 19.8428 3.06535 19.5326L6.00205 16.5493L8.94306 19.5326C9.55362 20.1529 10.5426 20.1529 11.1574 19.5326C11.768 18.9124 11.768 17.9034 11.1574 17.2831L8.16481 14.2431Z" fill="white"/>
</symbol>

<symbol viewBox="0 0 24 24" id="">
<path d="M48.3333 22.2642C53.5185 25.2579 53.5185 32.7421 48.3333 35.7358L11.6667 56.9053C6.48148 59.8989 -2.93552e-06 56.1569 -2.6738e-06 50.1695L-8.23107e-07 7.83049C-5.61392e-07 1.84316 6.48148 -1.89893 11.6667 1.09473L48.3333 22.2642Z" fill="white"/>
</symbol>

<symbol viewBox="-21 -14 60 60" id="fbIcon">
<path d="M10.1269 32.6393V16.3178H14.6324L15.2295 10.6933H10.1269L10.1346 7.87813C10.1346 6.41117 10.274 5.62514 12.381 5.62514H15.1976V0H10.6915C5.27892 0 3.37384 2.72849 3.37384 7.31696V10.6939H0V16.3184H3.37384V32.6393H10.1269Z" fill="white"/>
</symbol>

<symbol viewBox="-12 -23 60 60" id="vkIcon">
<path d="M17.5693 17.8451C17.5693 17.8451 18.1469 17.7821 18.4427 17.4702C18.7134 17.1845 18.704 16.6452 18.704 16.6452C18.704 16.6452 18.668 14.1272 19.8591 13.7554C21.0329 13.3898 22.5402 16.1905 24.1397 17.2674C25.348 18.0817 26.2651 17.9035 26.2651 17.9035L30.5395 17.8451C30.5395 17.8451 32.7745 17.7099 31.7149 15.9846C31.6272 15.8433 31.0967 14.7079 28.5377 12.3758C25.8566 9.9346 26.2166 10.3294 29.4439 6.1061C31.4097 3.5343 32.1954 1.96419 31.9497 1.29281C31.7165 0.650634 30.2703 0.821165 30.2703 0.821165L25.4591 0.850355C25.4591 0.850355 25.1023 0.802729 24.8378 0.957897C24.5795 1.10999 24.412 1.46488 24.412 1.46488C24.412 1.46488 23.6514 3.45441 22.6356 5.14744C20.493 8.71784 19.6369 8.9068 19.2863 8.68557C18.4708 8.16784 18.6743 6.60847 18.6743 5.50079C18.6743 2.03946 19.2096 0.596863 17.6335 0.223537C17.1107 0.0990961 16.7257 0.0176702 15.3875 0.00384333C13.6706 -0.0130562 12.2182 0.00998953 11.3949 0.404823C10.8471 0.667533 10.4245 1.25441 10.6828 1.28821C11.0005 1.32969 11.7205 1.47871 12.1024 1.98877C12.5954 2.64785 12.5782 4.12578 12.5782 4.12578C12.5782 4.12578 12.8614 8.2001 11.9161 8.70555C11.2681 9.05275 10.3792 8.34451 8.46815 5.10442C7.48995 3.4452 6.75121 1.61083 6.75121 1.61083C6.75121 1.61083 6.60878 1.26823 6.35367 1.08388C6.04534 0.861108 5.61493 0.791975 5.61493 0.791975L1.04321 0.821165C1.04321 0.821165 0.356125 0.8396 0.104141 1.13304C-0.119672 1.39268 0.0869246 1.93192 0.0869246 1.93192C0.0869246 1.93192 3.66636 10.1528 7.72002 14.2962C11.4372 18.094 15.6567 17.8451 15.6567 17.8451H17.5693Z" fill="white"/>
</symbol>

<symbol   viewBox="-21 -14 60 60" id="odIcon">
<path d="M12.3003 7.74219C12.3003 5.97461 10.8108 4.53711 8.97951 4.53711C7.14992 4.53711 5.65896 5.97461 5.65896 7.74219C5.65896 9.5083 7.14992 10.9463 8.97951 10.9463C10.8108 10.9463 12.3003 9.5083 12.3003 7.74219ZM16.9995 7.74219C16.9995 12.0098 13.4036 15.4814 8.97976 15.4814C4.55666 15.4814 0.959738 12.0098 0.959738 7.74219C0.959738 3.47266 4.55666 0 8.97976 0C13.4036 0 16.9995 3.47266 16.9995 7.74219ZM16.9021 19.939C15.4519 20.8179 13.8775 21.4414 12.2449 21.8003L16.7283 26.1289C17.6467 27.0132 17.6467 28.4502 16.7283 29.3359C15.8108 30.2217 14.3238 30.2217 13.4072 29.3359L8.99929 25.0825L4.59499 29.3359C4.13576 29.7783 3.53396 29.9995 2.93239 29.9995C2.33156 29.9995 1.73073 29.7783 1.27151 29.3359C0.354024 28.4502 0.354026 27.0142 1.27053 26.1289L5.75442 21.8003C4.12185 21.4414 2.54738 20.8169 1.09743 19.939C2.02656e-05 19.271 -0.329813 17.8716 0.361593 16.8115C1.05129 15.7495 2.50149 15.4302 3.60085 16.0981C6.88405 18.0918 11.1135 18.0923 14.3987 16.0981C15.4981 15.4302 16.9475 15.7495 17.6387 16.8115C18.3301 17.8706 17.9995 19.271 16.9021 19.939Z" fill="white"/>
</symbol>

<symbol viewBox="-2 0 24 24" id="name">
<path d="M12 5C12 3.34314 10.6569 2 9 2C7.34314 2 6 3.34314 6 5C6 6.65686 7.34314 8 9 8C10.6569 8 12 6.65686 12 5ZM14 5C14 7.76143 11.7614 10 9 10C6.23857 10 4 7.76143 4 5C4 2.23858 6.23857 0 9 0C11.7614 0 14 2.23858 14 5ZM18 16.9283C18.122 18.6085 16.7389 20 15.0507 20L2.95681 20C1.26854 20 -0.114524 18.6085 0.00750184 16.9283C0.286783 13.0828 4.26692 11 9.00006 11C13.7239 11 17.7183 13.0499 18 16.9283ZM16.005 17.0732C15.7951 14.1819 12.6055 13 8.99985 13C5.37245 13 2.20898 14.2238 2.00204 17.0732C1.96645 17.5633 2.4005 18 2.95661 18L15.0505 18C15.6066 18 16.0406 17.5633 16.005 17.0732Z" fill="black" fill-opacity="0.2"/>
</symbol>

<symbol viewBox="-3 0 24 24" id="phone">
<path fill-rule="evenodd" clip-rule="evenodd" d="M11.3077 0H2.69231C1.20615 0 0 1.12 0 2.5V19.5C0 20.88 1.20615 22 2.69231 22H11.3077C12.7938 22 14 20.88 14 19.5V2.5C14 1.12 12.7938 0 11.3077 0ZM7 21C6.17 21 5.5 20.33 5.5 19.5C5.5 18.67 6.17 18 7 18C7.83 18 8.5 18.67 8.5 19.5C8.5 20.33 7.83 21 7 21ZM12 17H2V3H12V17Z" fill="black" fill-opacity="0.2"/>
</symbol>

<symbol viewBox="0 0 24 24" id="e-mail">
<path d="M3 0C1.5 0 0 1.5 0 3V15C0 16.5 1.5 18 3 18H19C20.5 18 22 16.5 22 15V3C22 1.5 20.5 0 19 0H3ZM20 5.35341L11 9.40341L2 5.35341V3C2 2.44772 2.44772 2 3 2H19C19.5523 2 20 2.44772 20 3V5.35341ZM20 7.54659V15C20 15.5523 19.5523 16 19 16H3C2.44772 16 2 15.5523 2 15V7.54659L10.1793 11.2273C10.7012 11.4621 11.2988 11.4621 11.8207 11.2273L20 7.54659Z" fill="black" fill-opacity="0.2"/>
</symbol>

<symbol viewBox="0 0 35 37" id="hand">
<path d="M34.4137 23.7174L26.2766 32.9563C25.1904 34.1866 23.6204 34.8926 21.9697 34.8932H9.71258L7.5839 37L0 29.6829L5.43615 24.3366C7.68798 22.1224 11.02 21.376 14.0157 22.4148L15.2136 22.8301H22.5533C23.1792 22.8298 23.7785 23.0807 24.2142 23.5254C24.6499 23.9702 24.8848 24.5707 24.8651 25.1899C24.7937 26.4474 23.7342 27.4261 22.4618 27.4099H18.048C17.7131 27.3883 17.3938 27.5529 17.2197 27.8369C17.0456 28.121 17.0456 28.4772 17.2197 28.7613C17.3938 29.0453 17.7131 29.2099 18.048 29.1883H22.4618C24.6998 29.191 26.5462 27.455 26.6581 25.2427C26.6581 25.2427 26.6581 25.205 26.6581 25.1861L30.7362 20.6554C31.5967 19.6672 33.0898 19.5226 34.1276 20.3269C34.6263 20.7348 34.9378 21.3244 34.9917 21.9625C35.0455 22.6006 34.8371 23.2333 34.4137 23.7174ZM31.2359 4.0087V4.4882C31.2359 5.01301 31.2359 5.55292 31.2588 6.13059C31.3084 8.67158 31.3618 11.6505 30.4958 14.4369C29.2945 18.2092 25.76 20.7745 21.7637 20.7745C17.7674 20.7745 14.2328 18.2092 13.0315 14.4369C12.1579 11.6543 12.2113 8.67913 12.2685 6.13059C12.2685 5.5567 12.2914 4.99791 12.2914 4.4882V4.0087C12.2914 3.61459 12.6142 3.2951 13.0124 3.2951H13.4969C16.6403 3.2951 18.9331 2.44182 20.9358 0.52758L21.2754 0.202877C21.5554 -0.0676258 22.0024 -0.0676258 22.2825 0.202877L22.622 0.52758C24.5943 2.44182 26.887 3.2951 30.038 3.2951H30.5225C30.9178 3.29924 31.2359 3.61752 31.2359 4.0087ZM26.0782 8.40728L25.1322 7.46338C24.8852 7.22052 24.4865 7.22052 24.2395 7.46338L20.6841 10.9823L19.2955 9.61548C19.046 9.37863 18.6522 9.37863 18.4028 9.61548L17.4491 10.5707C17.2037 10.8151 17.2037 11.2098 17.4491 11.4542L20.2301 14.2066C20.4771 14.4495 20.8758 14.4495 21.1228 14.2066L26.0821 9.29833C26.2018 9.1801 26.2687 9.01939 26.268 8.85202C26.2673 8.68464 26.199 8.5245 26.0782 8.40728Z" fill="#1EA01E"/>
</symbol>

<symbol viewBox="0 0 24 24" id="message">
<path d="M13.3414 3C13.1203 3.62556 13 4.29873 13 5H9.5C5.91015 5 3 7.91015 3 11.5C3 15.0899 5.91015 18 9.5 18H14.6059L14.81 18.0973C15.7629 18.5514 16.6894 19.1352 17.5895 19.8472C17.6663 18.9602 17.7928 18.1193 17.9692 17.3245L18.0504 16.9586L18.3521 16.7362C20.0055 15.5175 21 13.5926 21 11.5C21 11.2211 20.9824 10.9463 20.9483 10.6766C21.628 10.4434 22.2525 10.0915 22.7972 9.64582C22.93 10.2427 23 10.8632 23 11.5C23 14.1014 21.8221 16.5081 19.8485 18.1067C19.7291 18.7112 19.6402 19.3489 19.5821 20.0198C19.5483 20.4097 19.4009 20.7811 19.1581 21.088C18.4728 21.9543 17.215 22.101 16.3487 21.4158C15.6275 20.8453 14.8942 20.3738 14.1485 20H9.5C4.80558 20 1 16.1944 1 11.5C1 6.80558 4.80558 3 9.5 3H13.3414Z" fill="black" fill-opacity="0.2"/>
<path d="M19 9C21.2091 9 23 7.20914 23 5C23 2.79086 21.2091 1 19 1C16.7909 1 15 2.79086 15 5C15 7.20914 16.7909 9 19 9Z" fill="#00B4F0"/>
</symbol>

<symbol viewBox="0 0 24 24" id="fr_services">
<path d="M10.0001 5C10.0001 3.34314 8.65691 2 7.00006 2C5.3432 2 4.00006 3.34314 4.00006 5C4.00006 6.65686 5.3432 8 7.00006 8C8.65691 8 10.0001 6.65686 10.0001 5ZM12.0001 5C12.0001 7.76143 9.76148 10 7.00006 10C4.23863 10 2.00006 7.76143 2.00006 5C2.00006 2.23858 4.23863 0 7.00006 0C9.76148 0 12.0001 2.23858 12.0001 5ZM19.0001 5.5C19.0001 7.4398 17.4501 9 15.5001 9C13.55 9 12.0001 7.4398 12.0001 5.5C12.0001 3.5602 13.55 2 15.5001 2C17.4501 2 19.0001 3.5602 19.0001 5.5ZM17.0001 5.5C17.0001 4.66183 16.3426 4 15.5001 4C14.6575 4 14.0001 4.66183 14.0001 5.5C14.0001 6.33817 14.6575 7 15.5001 7C16.3426 7 17.0001 6.33817 17.0001 5.5ZM13.9064 16.9283C14.0284 18.6085 12.6454 20 10.9572 20H2.95681C1.26854 20 -0.114524 18.6085 0.00750182 16.9283C0.286783 13.0828 2.26692 11 7.00006 11C11.7239 11 13.6247 13.0499 13.9064 16.9283ZM11.9117 17.0732C11.7017 14.1819 10.6057 13 7.00006 13C3.37266 13 2.20919 14.2238 2.00225 17.0732C1.96665 17.5633 2.40071 18 2.95681 18H10.9572C11.5132 18 11.9473 17.5633 11.9117 17.0732ZM15.5001 17C14.9478 17 14.5001 16.5523 14.5001 16C14.5001 15.4477 14.9478 15 15.5001 15H17.9835C17.9378 14.0137 17.8024 13.3246 17.6056 12.9472C17.1621 12.0602 16.4152 11.5 15.5001 11.5C14.5432 11.5 14.2941 11.6178 13.7901 12.1239C13.7499 12.1643 13.7499 12.1643 13.7072 12.2071C13.3166 12.5976 12.6835 12.5976 12.2929 12.2071C11.9024 11.8166 11.9024 11.1834 12.2929 10.7929C12.3318 10.7539 12.3318 10.7539 12.3729 10.7126C13.2311 9.85085 13.9733 9.5 15.5001 9.5C17.2516 9.5 18.638 10.5398 19.3866 12.0374C19.7373 12.7096 19.9234 13.6563 19.9814 14.9075C19.9832 14.9537 19.9832 14.9537 19.9835 15C19.9835 16.1046 19.0881 17 17.9835 17L15.5001 17Z" fill="black" fill-opacity="0.2"/>
</symbol>

<symbol viewBox="0 0 24 24" id="houseWhite">
<path d="M4.99808 7.0625H6.00192C6.03418 7.58567 6.46871 8 7 8C7.53129 8 7.96582 7.58567 7.99808 7.0625H9.00192C9.03418 7.58567 9.46871 8 10 8C10.5313 8 10.9658 7.58567 10.9981 7.0625H12.0019C12.0342 7.58567 12.4687 8 13 8C13.5313 8 13.9658 7.58567 13.9981 7.0625H15.0019C15.0342 7.58567 15.4687 8 16 8C16.5523 8 17 7.55228 17 7C17 6.93189 16.9932 6.86538 16.9802 6.8011C17.3095 6.50085 17.4075 6.00535 17.189 5.59361L15.5632 2.53111C15.3897 2.2043 15.0499 2 14.6799 2H5.32006C4.95006 2 4.61029 2.2043 4.4368 2.53111L2.81103 5.59361C2.73437 5.73801 2.69429 5.89901 2.69429 6.0625C2.69429 6.35489 2.81978 6.61797 3.01984 6.80083C3.00683 6.86519 3 6.9318 3 7C3 7.55228 3.44772 8 4 8C4.53129 8 4.96582 7.58567 4.99808 7.0625ZM2.73611 1.13262C3.06936 0.440237 3.76983 0 4.53823 0H15.4618C16.2302 0 16.9306 0.440237 17.2639 1.13262L19.9375 6.6875L20 6.84375V7C20 7.87891 19.6094 8.66797 19 9.21875V17C19 18.6569 17.6569 20 16 20H4C2.34315 20 1 18.6569 1 17V9.21875C0.390625 8.66797 0 7.87891 0 7V6.84375L0.0625 6.6875L2.73611 1.13262ZM11 10V18H16C16.5523 18 17 17.5523 17 17V10H11ZM3 10V17C3 17.5523 3.44772 18 4 18H9V10H3ZM8 13C7.44922 13 7 13.4492 7 14C7 14.5508 7.44922 15 8 15V13ZM12 13V15C12.5508 15 13 14.5508 13 14C13 13.4492 12.5508 13 12 13Z" fill="black" fill-opacity="0.2"/>
</symbol>

<symbol viewBox="0 0 24 24" id="franchiseWhite">
<path d="M8 0C7.47656 0 6.94141 0.183594 6.5625 0.5625C6.18359 0.941406 6 1.47656 6 2V3H3C1.34315 3 0 4.34315 0 6V15C0 16.6569 1.34315 18 3 18H17C18.6569 18 20 16.6569 20 15V6C20 4.34315 18.6569 3 17 3H14V2C14 1.47656 13.8164 0.941406 13.4375 0.5625C13.0586 0.183594 12.5234 0 12 0H8ZM8 2H12V3H8V2ZM2 11H18V15C18 15.5523 17.5523 16 17 16H3C2.44772 16 2 15.5523 2 15V11ZM3 5H17C17.5523 5 18 5.44772 18 6V9H2V6C2 5.44772 2.44772 5 3 5ZM10 6C9.44922 6 9 6.44922 9 7C9 7.55078 9.44922 8 10 8C10.5508 8 11 7.55078 11 7C11 6.44922 10.5508 6 10 6Z" fill="black" fill-opacity="0.2"/>
</symbol>
<symbol viewBox="0 0 24 24" id="gb">
<path d="M3.15268 6.23294C3.04723 5.71222 2.99986 5.16713 2.99986 4.5C2.99986 2.29286 5.08427 0 7.49986 0H12.4999C14.9154 0 16.9999 2.29286 16.9999 4.5C16.9999 5.14235 16.9476 5.69628 16.8372 6.23422C17.2632 6.24062 17.6965 6.33825 18.1102 6.53132C19.7019 7.27408 20.3243 9.08721 19.3943 10.9472C19.4123 10.9111 18.753 12.4734 18.4242 13.0891C17.4576 14.8992 16.2283 16 14.4999 16H10.9999V18H13.9999C14.9999 18 15.9999 19 15.9999 20H3.99986C3.99986 19 4.99986 18 5.99986 18H8.99986V16H5.49986C3.77144 16 2.54214 14.8992 1.57551 13.0891C1.24668 12.4734 0.587361 10.9111 0.605428 10.9472C-0.324575 9.08721 0.297843 7.27408 1.88947 6.53132C2.30022 6.33963 2.73036 6.24202 3.15268 6.23294ZM5.91272 8.08982C6.02308 8.31252 6.11487 8.51636 6.30694 8.95503C6.56697 9.54894 6.68216 9.79558 6.80899 10.0128C6.81545 10.0239 6.82175 10.0345 6.82787 10.0447H13.1719C13.2426 9.92743 13.3274 9.76321 13.427 9.54979C13.499 9.39547 13.5582 9.26233 13.6928 8.95503C13.8954 8.49218 13.9864 8.29076 14.0714 8.12861L14.072 8.12706C14.111 8.02969 14.3673 7.39605 14.4334 7.22838C14.5511 6.92998 14.6356 6.69941 14.7055 6.48207C14.9095 5.84803 14.9999 5.27704 14.9999 4.5C14.9999 3.35714 13.7661 2 12.4999 2H7.49986C6.23362 2 4.99986 3.35714 4.99986 4.5C4.99986 5.23199 5.06442 5.72992 5.21431 6.24655C5.28139 6.47777 5.36815 6.72427 5.49664 7.05354C5.56688 7.23357 5.84136 7.91283 5.91272 8.08982ZM16.66 12.147C16.9351 11.6318 17.5803 10.103 17.6054 10.0528C18.0338 9.19598 17.8322 8.60863 17.2645 8.34368C16.7218 8.09045 16.1667 8.27549 15.8943 8.94721C15.796 9.14372 15.7133 9.3269 15.5249 9.75717C15.3838 10.0794 15.3205 10.2217 15.2394 10.3956C14.6967 11.5585 14.3479 12.0447 13.4999 12.0447H6.49986C5.83747 12.0447 5.45778 11.6653 5.08176 11.0211C4.90054 10.7107 4.76929 10.4297 4.47484 9.75717C4.28646 9.3269 4.20368 9.14372 4.07138 8.87139C3.83302 8.27549 3.27788 8.09045 2.73524 8.34368C2.16751 8.60863 1.96588 9.19598 2.39428 10.0528C2.4194 10.103 3.06458 11.6318 3.33971 12.147C3.99523 13.3745 4.69374 14 5.49986 14H14.4999C15.306 14 16.0045 13.3745 16.66 12.147Z" fill="black" fill-opacity="0.2"/>
</symbol>
<symbol viewBox="0 0 24 24" id="opt">
<path d="M2.90285 0.853075C3.2771 0.318422 3.88868 0 4.54131 0H15.4587C16.1113 0 16.7229 0.318422 17.0972 0.853075L19.6385 4.48352C19.8738 4.81969 20 5.2201 20 5.63044L20 17C20 18.6569 18.6569 20 17 20L3 20C1.34315 20 0 18.6569 0 17V5.63044C0 5.2201 0.126219 4.81969 0.361536 4.48352L2.90285 0.853075ZM5 2C4.68524 2 4.38885 2.14819 4.2 2.4L3 4H9V2H5ZM11 2V4H17L15.8 2.4C15.6111 2.14819 15.3148 2 15 2H11ZM3 6C2.44772 6 2 6.44772 2 7V17C2 17.5523 2.44772 18 3 18H17C17.5523 18 18 17.5523 18 17V7C18 6.44772 17.5523 6 17 6H3ZM7 9C7 8.44772 7.44772 8 8 8H12C12.5523 8 13 8.44772 13 9C13 9.55228 12.5523 10 12 10H8C7.44772 10 7 9.55228 7 9Z" fill="black" fill-opacity="0.2"/>
</symbol>
<symbol viewBox="0 0 24 24" id="union">
<path d="M3 2C2.44772 2 2 2.44772 2 3V18H6V20H0V3C0 1.34315 1.34315 0 3 0H11C12.6569 0 14 1.34315 14 3V4L12 5V3C12 2.44772 11.5523 2 11 2H3Z" fill="black" fill-opacity="0.2"/>
<path d="M4 4H6V6H4V4Z" fill="black" fill-opacity="0.2"/>
<path d="M6 8H4V10H6V8Z" fill="black" fill-opacity="0.2"/>
<path d="M4 12H6V14H4V12Z" fill="black" fill-opacity="0.2"/>
<path d="M10 8H8V10H10V8Z" fill="black" fill-opacity="0.2"/>
<path d="M8 12H10V14H8V12Z" fill="black" fill-opacity="0.2"/>
<path d="M10 4H8V6H10V4Z" fill="black" fill-opacity="0.2"/>
<path fill-rule="evenodd" clip-rule="evenodd" d="M14.5 13C16.433 13 18 11.433 18 9.5C18 7.567 16.433 6 14.5 6C12.567 6 11 7.567 11 9.5C11 11.433 12.567 13 14.5 13ZM14.5 11C15.3284 11 16 10.3284 16 9.5C16 8.67157 15.3284 8 14.5 8C13.6716 8 13 8.67157 13 9.5C13 10.3284 13.6716 11 14.5 11Z" fill="black" fill-opacity="0.2"/>
<path fill-rule="evenodd" clip-rule="evenodd" d="M14.5 13C17.9375 13 21 15 21 17V20H8.00003L8 17C8 15 11.0625 13 14.5 13ZM10 18L10 17C10 17 10.0004 17.0004 10.0015 16.9962C10.0147 16.9469 10.134 16.5025 11.0239 15.9441C11.8924 15.3992 13.1474 15 14.5 15C15.8526 15 17.1076 15.3992 17.9761 15.9441C18.866 16.5025 18.9853 16.9469 18.9985 16.9962C18.9996 17.0004 19 17 19 17V18H10Z" fill="black" fill-opacity="0.2"/>
</symbol>
<symbol viewBox="0 0 24 24" id="investwhite">
<path d="M10.0006 15.9649C8.76116 15.8685 7.9468 15.5681 7 15L6.55279 14.8944C6.05881 14.6474 5.85858 14.0468 6.10557 13.5528C6.35256 13.0588 6.95324 12.8586 7 13L7.44721 13.1056C8.82046 13.7922 9.51314 14 11 14C12.9 14 14 13.5417 14 13C14 12.4583 12.9 12 11.019 11.9998C8.17244 12.0538 6 11.1349 6 9C6 7.12792 7.62986 6.226 10.0007 6.03782C10.0002 6.02527 10 6.01266 10 6V5.5C10 4.94772 10.4477 4.5 11 4.5C11.5523 4.5 12 4.94772 12 5.5V6C12 6.01192 11.9998 6.02379 11.9994 6.03561C13.2546 6.13502 14.1402 6.45209 15.4472 7.10557C15.9412 7.35256 16.1414 7.95323 15.8944 8.44721C15.6474 8.94119 15.0468 9.14142 14.5528 8.89443C13.1795 8.2078 12.4869 8 11 8C9.1 8 8 8.45833 8 9C8 9.55706 9.13058 10.0353 11 10C13.9 10 16 10.875 16 13C16 14.8721 14.3701 15.774 11.9993 15.9622C11.9998 15.9747 12 15.9873 12 16V16.5C12 17.0523 11.5523 17.5 11 17.5C10.4477 17.5 10 17.0523 10 16.5V16C10 15.9883 10.0002 15.9766 10.0006 15.9649ZM11 22C4.92487 22 0 17.0751 0 11C0 4.92487 4.92487 0 11 0C17.0751 0 22 4.92487 22 11C22 17.0751 17.0751 22 11 22ZM11 20C15.9706 20 20 15.9706 20 11C20 6.02944 15.9706 2 11 2C6.02944 2 2 6.02944 2 11C2 15.9706 6.02944 20 11 20Z" fill="black" fill-opacity="0.2"/>
</symbol>
<symbol viewBox="0 0 24 24" id="ideaWhite">
<path d="M11 0C15.4062 0 19 3.59375 19 8C19 10.3555 17.8086 12.0039 16.7812 13.25C15.7539 14.4961 15 15.3398 15 16.3125V18C15 19.1055 14.1055 20 13 20H12.7188C12.3711 20.5977 11.7383 21 11 21C10.2617 21 9.62891 20.5977 9.28125 20H9C7.89453 20 7 19.1055 7 18V16.3125C7 15.3203 6.24219 14.457 5.21875 13.2188C4.19531 11.9805 3 10.3633 3 8C3 3.59375 6.59375 0 11 0ZM11 2C7.67578 2 5 4.67578 5 8C5 9.70703 5.80469 10.793 6.78125 11.9688C7.69531 13.0703 8.85547 14.2852 9 16H13C13.1445 14.2969 14.3047 13.0742 15.2188 11.9688C16.1914 10.7852 17 9.69922 17 8C17 4.67578 14.3242 2 11 2ZM1.75 2.15625C1.87891 2.15625 2.02734 2.16406 2.15625 2.21875C2.66797 2.42969 2.89844 3.01953 2.6875 3.53125C2.47656 4.04297 1.88672 4.30469 1.375 4.09375C0.863281 3.88281 0.632813 3.29297 0.84375 2.78125C1.00391 2.39844 1.35938 2.16016 1.75 2.15625ZM20.3125 2.15625C20.7031 2.16016 21.0898 2.39844 21.25 2.78125C21.4609 3.29297 21.1992 3.88281 20.6875 4.09375C20.1758 4.30469 19.5859 4.04297 19.375 3.53125C19.1641 3.01953 19.4258 2.42969 19.9375 2.21875C20.0664 2.16406 20.1836 2.15625 20.3125 2.15625ZM1 7C1.55469 7 2 7.44531 2 8C2 8.55469 1.55469 9 1 9C0.445313 9 0 8.55469 0 8C0 7.44531 0.445313 7 1 7ZM21 7C21.5508 7 22 7.44922 22 8C22 8.55078 21.5508 9 21 9C20.4492 9 20 8.55078 20 8C20 7.44922 20.4492 7 21 7ZM20.2188 11.8125C20.3477 11.8125 20.4961 11.8516 20.625 11.9062C21.1367 12.1172 21.3672 12.707 21.1562 13.2188C20.9453 13.7305 20.3555 13.9609 19.8438 13.75C19.332 13.5391 19.1016 12.9492 19.3125 12.4375C19.4727 12.0547 19.8281 11.8164 20.2188 11.8125ZM1.78125 11.8438C2.17188 11.8477 2.52734 12.0859 2.6875 12.4688C2.89844 12.9805 2.66797 13.5703 2.15625 13.7812C1.64453 13.9922 1.05469 13.7305 0.84375 13.2188C0.632813 12.707 0.863281 12.1172 1.375 11.9062C1.50391 11.8516 1.65234 11.8438 1.78125 11.8438ZM13 16H12.0132L12 14C12 12.4971 12.5863 10.243 13.4599 9.02004L14.0934 8.13314C14.3071 7.83397 14.2732 7.42417 14.0132 7.16421C13.7942 6.94526 13.4392 6.94526 13.2203 7.16421L12.7203 7.66421C11.8347 8.54983 10.3988 8.54983 9.51319 7.66421L9.01319 7.16421C8.79424 6.94526 8.43925 6.94526 8.2203 7.16421C7.96034 7.42417 7.92642 7.83397 8.14011 8.13314L8.77361 9.02004C9.64715 10.243 10.0132 12.4971 10.0132 14V16H9.01319V14C9.01319 12.7055 8.71228 10.6546 7.95988 9.60128L7.32638 8.71437C6.82856 8.01743 6.90757 7.06273 7.51319 6.45711C8.12267 5.84763 9.11082 5.84763 9.7203 6.45711L10.2203 6.95711C10.7154 7.4522 11.5181 7.4522 12.0132 6.95711L12.5132 6.45711C13.1227 5.84763 14.1108 5.84763 14.7203 6.45711C15.3259 7.06273 15.4049 8.01743 14.9071 8.71437L14.2736 9.60128C13.5212 10.6546 13 12.7055 13 14V16Z" fill="black" fill-opacity="0.2"/>
</symbol>
<symbol viewBox="0 0 24 24" id="bplan">
<path d="M9 0C10.3008 0 11.4141 0.800781 11.8125 2H15C16.6569 2 18 3.34315 18 5V19C18 20.6569 16.6569 22 15 22H3C1.34315 22 0 20.6569 0 19V5C0 3.34315 1.34315 2 3 2H6.1875C6.58594 0.800781 7.69922 0 9 0ZM9 2C8.39844 2 8 2.39844 8 3C8 3.60156 8.39844 4 9 4C9.60156 4 10 3.60156 10 3C10 2.39844 9.60156 2 9 2ZM3 4C2.44772 4 2 4.44772 2 5V19C2 19.5523 2.44772 20 3 20H15C15.5523 20 16 19.5523 16 19V5C16 4.44772 15.5523 4 15 4H14V5C14 5.55228 13.5523 6 13 6H5C4.44772 6 4 5.55228 4 5V4H3ZM12.9453 9.24224C12.9478 9.23968 12.9504 9.23712 12.953 9.23459C13.2593 8.93679 13.7491 8.94368 14.0469 9.25C14.3501 9.56193 14.3466 10.0596 14.039 10.3672L8.70711 15.6991C8.31658 16.0897 7.68342 16.0897 7.29289 15.6991L4.96099 13.3672C4.65336 13.0596 4.64986 12.5619 4.95312 12.25C4.95566 12.2474 4.95821 12.2448 4.96077 12.2422C5.26287 11.9402 5.75265 11.9402 6.05474 12.2422L8 14.1875L12.9453 9.24224Z" fill="black" fill-opacity="0.2"/>
</symbol>
<symbol viewBox="0 0 24 24" id="">

</symbol>


</svg>